<svg viewBox="0 0 124.012 66.451" xmlns="http://www.w3.org/2000/svg"><path d="m120.639 2.038a7.054 7.054 0 0 0 -4.977-2.037l-108.611.001a7.164 7.164 0 0 0 -5.031 2.04c-1.33 1.326-2.02 3.145-2.02 5.023v48.471c0 1.898.69 3.688 2.02 5.003a7.112 7.112 0 0 0 5.031 2.087l108.611.003c3.891 0 7.029-3.176 7.029-7.097v-48.471c0-1.877-.714-3.692-2.052-5.023" fill="#fff"/><path d="m122.691 7.061c0-1.878-.714-3.693-2.052-5.023a7.05 7.05 0 0 0 -4.976-2.038h-30.36l17.415 29.104 1.609.203.971 1.328v1.242l1.101.227 1.002 1.385v1.196l1.143.2 1.144 1.253v2.741s2.46 2.255 4.639 3.111c1.541.594 1.705 3.035 2.632 4.361 1.156 1.91 2.749 2.673 2.408 3.746-.777 2.862-3.704 7.677-6.429 7.909h-10.783v4.623h13.508c3.89 0 7.028-3.177 7.028-7.097z" fill="#bf0d3e"/><path d="m48.428 58.052h-5.226c-.046-13.038 4.402-20.255 9.689-21.686.724-.132.377-3.695-.54-4.779 0 0-2.563.04-3.101-.034-.67-.183-.206-.919-.206-.919l2.473-5.286-.338-1.445h-9.085l7.508-5.246c.35-13.847 14.546-14.926 23.106-9.2 5.082 3.367 5.478 10.036 5.082 14.652-.066.298-1.321.1-1.321.1s-.863 5.055 1.394 5.055h9.988c4.074-.161 7.997 2.592 7.997 2.592l.961-3.49-21.873-28.364h-67.885a7.159 7.159 0 0 0 -5.03 2.039c-1.331 1.326-2.02 3.146-2.02 5.024v48.47c0 1.898.689 3.688 2.02 5.004a7.111 7.111 0 0 0 5.03 2.086h44.065a336.224 336.224 0 0 0 -2.688-4.573" fill="#041e42"/><path d="m9.773 47.768a4.83 4.83 0 0 1 4.784-4.828c2.693 0 4.866 2.171 4.866 4.828 0 2.669-2.173 4.826-4.866 4.826-2.671.019-4.784-2.157-4.784-4.826" fill="#fff"/><g fill="#bf0d3e"><path d="m123.025 64.094c0-.545-.326-.624-.791-.624h-.994v2.028h.43v-.807h.348l.469.807h.478l-.484-.807c.348-.024.544-.222.544-.597m-.784.232h-.571v-.495h.473c.204 0 .457 0 .457.225 0 .217-.119.27-.359.27"/><path d="m122.058 62.535c-1.082 0-1.939.865-1.939 1.967a1.94 1.94 0 0 0 1.939 1.949 1.949 1.949 0 0 0 1.954-1.949 1.945 1.945 0 0 0 -1.954-1.967m0 3.489a1.5 1.5 0 0 1 -1.506-1.522c0-.884.677-1.539 1.506-1.539.838 0 1.53.655 1.53 1.539 0 .866-.692 1.522-1.53 1.522"/></g></svg>