<svg xmlns="http://www.w3.org/2000/svg" xmlns:xlink="http://www.w3.org/1999/xlink" width="320" height="320" viewBox="0 0 320 320">
  <defs>
    <rect id="shield-a" width="320" height="320" x="0" y="0"/>
  </defs>
  <g fill="none" fill-rule="evenodd">
    <mask id="shield-b" fill="#fff">
      <use xlink:href="#shield-a"/>
    </mask>
    <g mask="url(#shield-b)" opacity=".32">
      <g fill="#FFF" transform="rotate(-45 30.49 284.355)">
        <path fill-rule="nonzero" d="M209.291925,0.536645963 C209.291925,0.536645963 231.29441,66.5440994 308.034783,85.5055901 C352.397516,96.4173913 386.742857,78.7080745 404.809938,65.8285714 L404.809938,65.8285714 L418.583851,65.8285714 L418.583197,422.61137 C418.539667,431.642218 416.290584,449.349764 401.768944,466.881988 C383.701863,488.70559 353.113043,503.016149 310.718012,509.098137 C277.088199,513.92795 252.04472,524.481988 234.514286,541.475776 C221.992547,553.46087 209.291925,575.463354 209.291925,575.463354 C209.291925,575.463354 196.949068,553.997516 184.069565,541.475776 C166.53913,524.66087 141.674534,513.92795 107.865839,509.098137 C65.4708075,503.016149 34.8819876,488.884472 16.8149068,466.881988 C2.14658385,449.172671 0,431.284472 0,422.340373 L0,65.8285714 L13.773913,65.8285714 C31.8409938,78.8869565 66.1863354,96.4173913 110.549068,85.5055901 C187.289441,66.7229814 209.291925,0.536645963 209.291925,0.536645963 Z M209.291925,28.8 C209.291925,28.8 182.459627,80.4968944 113.590062,97.6695652 C54.5590062,112.51677 12.5217391,79.7813665 12.5217391,79.7813665 L12.5217391,422.340373 C12.5217391,433.967702 17.3515528,483.33913 109.654658,496.75528 C146.146584,501.942857 173.336646,513.749068 192.834783,532.531677 C199.81118,539.329193 205.17764,546.126708 209.291925,552.387578 C213.406211,546.126708 218.772671,539.150311 225.749068,532.531677 C245.247205,513.749068 272.437267,501.942857 308.929193,496.75528 C401.232298,483.33913 406.062112,433.967702 406.062112,422.340373 L406.062112,79.7813665 C406.062112,79.7813665 364.024845,112.51677 304.993789,97.6695652 C236.124224,80.4968944 209.291925,28.8 209.291925,28.8 Z"/>
        <path fill-rule="nonzero" d="M382.807453 242.921739L382.808067 422.583538C382.84577 425.053297 384.336894 461.817839 305.530435 474.037267 236.124224 484.770186 209.291925 517.684472 209.291925 517.684472 209.291925 517.684472 182.459627 484.591304 112.874534 473.858385 33.2720497 461.69441 35.5975155 424.308075 35.5975155 422.340373L35.5975155 422.340373 35.5975155 242.921739 382.807453 242.921739zM266.534161 260.809938L176.556522 260.809938 176.556522 283.170186 188.004969 288.89441 188.004969 443.985093 176.556522 448.636025 176.556522 467.418634 228.432298 486.737888 228.432298 464.556522 218.057143 452.034783 217.699379 452.034783 217.699379 366.350311 235.229814 366.350311 241.669565 375.652174 255.443478 375.652174 255.443478 329.679503 241.669565 329.679503 234.87205 339.518012 217.699379 339.518012 217.699379 287.463354 240.596273 287.463354 246.678261 305.888199 266.534161 305.888199 266.534161 260.809938zM91.4086957 260.452174L51.8757764 260.452174 51.8757764 282.63354 64.0397516 288.536646 64.0397516 411.428571 52.0546584 416.079503 52.0546584 435.398758 104.288199 448.636025 104.288199 426.096894 92.3031056 416.973913 92.3031056 343.632298 130.047205 454.896894 156.163975 462.767702 156.163975 288.715528 166.360248 282.63354 166.360248 260.452174 117.704348 260.452174 117.704348 282.63354 128.437267 288.715528 128.437267 374.042236 91.4086957 260.452174zM329.142857 260.631056L277.267081 260.631056 277.267081 282.991304 288.178882 288.715528 288.178882 427.170186 275.299379 437.724224 275.299379 459.90559 366.708075 435.398758 366.708075 378.514286 345.6 378.514286 341.306832 412.501863 318.946584 418.583851 318.946584 288.715528 329.142857 282.991304 329.142857 260.631056zM364.024845 176.198758L370.285714 194.44472 389.426087 194.44472 373.684472 206.250932 379.587578 224.675776 364.024845 213.763975 348.462112 224.675776 354.186335 206.250932 338.44472 194.44472 357.763975 194.44472 364.024845 176.198758zM295.870807 176.198758L302.131677 194.44472 321.27205 194.44472 305.530435 206.250932 311.612422 224.675776 296.049689 213.763975 280.486957 224.675776 286.21118 206.250932 270.469565 194.44472 289.609938 194.44472 295.870807 176.198758zM54.3801242 176.019876L60.6409938 194.265839 79.7813665 194.265839 64.0397516 206.07205 69.7639752 224.496894 54.2012422 213.585093 38.6385093 224.496894 44.7204969 206.07205 28.978882 194.265839 48.1192547 194.265839 54.3801242 176.019876zM122.534161 176.019876L128.795031 194.265839 147.935404 194.265839 132.193789 206.07205 137.918012 224.496894 122.35528 213.585093 106.792547 224.496894 112.874534 206.07205 97.1329193 194.265839 116.273292 194.265839 122.534161 176.019876zM245.783851 93.1975155C249.182609 93.0186335 250.434783 93.7341615 250.434783 93.7341615 250.434783 93.7341615 239.344099 97.8484472 226.464596 107.686957 226.464596 107.686957 223.423602 106.434783 220.203727 105.540373 218.236025 106.792547 216.089441 108.223602 214.121739 109.654658 220.203727 111.085714 227.895652 114.126708 235.229814 120.208696 236.839752 118.77764 238.449689 117.167702 240.238509 115.557764 238.449689 114.126708 235.587578 112.159006 233.08323 110.72795 244.531677 99.6372671 252.581366 95.3440994 252.581366 95.3440994 254.191304 95.1652174 255.085714 97.1329193 255.980124 98.3850932 262.77764 115.557764 264.56646 136.486957 259.378882 156.521739 251.508075 187.110559 225.749068 215.195031 170.474534 222.350311 169.22236 222.529193 167.791304 222.171429 167.612422 221.455901 170.11677 209.828571 176.37764 187.647205 189.793789 164.213665 192.298137 165.823602 194.802484 167.43354 197.12795 169.22236 198.02236 167.791304 199.095652 166.181366 200.70559 163.498137 193.908075 158.131677 186.037267 154.375155 177.27205 152.765217 177.27205 152.765217 175.662112 156.163975 174.409938 158.668323 174.409938 158.668323 177.808696 159.383851 181.922981 160.814907 169.937888 186.216149 165.823602 209.828571 164.750311 220.561491 161.351553 215.195031 158.668323 202.673292 157.773913 195.875776 149.008696 131.478261 195.33913 93.9130435 245.783851 93.1975155zM54.3801242 114.663354L60.6409938 132.909317 79.7813665 132.909317 64.0397516 144.715528 69.7639752 163.140373 54.2012422 152.228571 38.6385093 163.140373 44.7204969 144.715528 28.978882 132.909317 48.1192547 132.909317 54.3801242 114.663354zM122.534161 114.663354L128.795031 132.909317 147.935404 132.909317 132.193789 144.715528 137.918012 163.140373 122.35528 152.228571 106.792547 163.140373 112.874534 144.715528 97.1329193 132.909317 116.273292 132.909317 122.534161 114.663354zM364.024845 114.663354L370.285714 132.909317 389.426087 132.909317 373.684472 144.715528 379.587578 163.140373 364.024845 152.228571 348.462112 163.140373 354.186335 144.715528 338.44472 132.909317 357.763975 132.909317 364.024845 114.663354zM295.870807 114.663354L302.131677 132.909317 321.27205 132.909317 305.530435 144.715528 311.612422 163.140373 296.049689 152.228571 280.486957 163.140373 286.21118 144.715528 270.469565 132.909317 289.609938 132.909317 295.870807 114.663354zM185.142857 138.63354C183.711801 140.780124 181.207453 144.89441 181.207453 144.89441 189.436025 146.504348 197.843478 150.26087 204.998758 156.163975 206.250932 154.375155 207.681988 152.228571 209.113043 150.081988 203.38882 145.252174 195.160248 140.601242 185.142857 138.63354zM194.802484 126.290683C193.192547 128.079503 191.582609 130.047205 190.151553 131.836025 199.274534 133.624845 207.503106 137.918012 214.121739 143.463354 215.552795 141.495652 216.983851 139.706832 218.593789 137.73913 210.722981 131.299379 201.778882 127.542857 194.802484 126.290683zM207.145342 115.021118C205.356522 116.452174 203.209938 118.062112 201.242236 120.029814 209.470807 121.818634 217.341615 125.575155 224.318012 131.299379 225.749068 129.510559 227.359006 127.900621 229.326708 126.111801 224.496894 122.176398 217.520497 117.525466 207.145342 115.021118z"/>
      </g>
    </g>
  </g>
</svg>
