<svg width="36" height="48" fill="none" xmlns="http://www.w3.org/2000/svg"><g clip-path="url(#a)"><path d="M0 41.886c0 3.297 2.698 5.978 6.016 5.978h23.1c3.32 0 6.017-2.68 6.017-5.978V5.893c0-3.298-2.698-5.978-6.016-5.893h-23.1C2.696-.085 0 2.595 0 5.893v35.993Z" fill="#003970"/><path d="M6.016 1.276c-2.57 0-4.646 2.064-4.646 4.617v35.993c0 2.553 2.077 4.616 4.646 4.616h23.1c2.57 0 4.647-2.063 4.647-4.616V5.893c0-2.553-2.077-4.617-4.646-4.617H6.016Z" fill="#fff"/><path d="M5.995 1.978a3.917 3.917 0 0 0-3.94 3.915v35.993a3.917 3.917 0 0 0 3.94 3.914h23.1a3.916 3.916 0 0 0 3.94-3.914V5.893a3.916 3.916 0 0 0-3.94-3.915h-23.1Z" fill="#003970"/><path d="M7.087 8.17h.642c.342 0 .642.233.642.573 0 .362-.3.575-.728.575h-.535V8.169h-.021Zm-1.2 2.594c0 .15-.085.234-.235.234h-.385v.51H7.75v-.51h-.428c-.15 0-.235-.085-.235-.234V9.85h.685c1.156 0 1.777-.298 1.777-1.085 0-.787-.621-1.085-1.649-1.085H5.267v.51h.385c.15 0 .236.085.236.234v2.34ZM14.537 9.977h-.3c-.15 0-.235.085-.235.234v1.32h-.557l-.128-.277c-.364.255-.835.361-1.242.361-1.306 0-2.226-.68-2.226-1.978s.877-2.085 2.226-2.085c.364 0 .814.106 1.135.383l.128-.32h.578v1.341h-.578c-.021-.574-.385-.872-1.027-.872-.728 0-1.07.49-1.07 1.489 0 1 .342 1.49 1.07 1.49.235 0 .535-.086.535-.363v-.489c0-.149-.086-.234-.236-.234h-.32v-.51h2.29v.51h-.043ZM19.333 11.062c-.428-.064-.428-.17-.6-.51L17.491 7.7h-.942l-1.177 2.617c-.193.382-.3.68-.835.723v.447h1.884v-.426h-.064c-.15-.021-.493-.021-.493-.213 0-.063.043-.17.064-.255l.065-.191h1.498l.086.191c.021.085.086.213.086.298 0 .17-.386.149-.514.17v.447h2.226v-.447h-.042Zm-3.126-1.106.578-1.277.535 1.277h-1.113Z" fill="#fff"/><path d="M30.187 13.04c.6-.595.621-2.042.621-2.042-.6-1.085-1.862-1.404-1.862-1.404-.279-.191-.514-.021-.6.085L18.241 3.553c-.728-.383-1.756.914-2.013 1.382-.107.17.236.426.45.553.92.596 1.349-.936 1.691-1.467l9.785 6.126c-.022 0 .042.51.064.532 0 .787.642 1.468.257 2.617-.107 1.616-1.863 1.935-2.826 2.935-.878.851-2.634.745-3.362 1.447l-.021.021v-.021c-.621-1.638-1.006-1.723-1.199-2.383-.77-.298-1.67-.361-2.42.043-.706.468-1.07 1.319-.941 2.085.021.787 1.134 1.637 1.712 1.978-.385.532-.556 1.191-.556 1.468-.086 1.17.835 2.276 1.092 2.723 1.092 1.616 1.712 2.893 1.948 3.34.043.085.107.148.043.276-.022.021-.942 1.66.6 3.978.62 1.191 1.52 3.85 1.54 3.871.365.383-.492.15-.577 1.022-.6.234-5.181 3.701-6.21 4.637-.406.128-.941.106-1.112.617-.022.043-.193.49-.279.596-.45.51-.963 1.404-1.049 2.276-.107.447.022 1.319.535 1.553.236.106.343.021.407 0 .064-.043.364-.83.407-.915.364-.872.9-1.106 2.12-2.34.62.17.877.532 1.52.68 1.712-1.574 3.447-3.02 5.116-4.658-.256 2.51-.492 5.084-.492 5.786-.107.447-.128 1.191.193 1.574 0 0 2.804.17 3.34.128.278-.021.278-.17.278-.17s.257-.383-.428-.872c-.193-.15-.664-.724-1.028-.958.492-.106.985-.191 1.113-.191-.128-1.319-.15-4.17-.256-7.892-.407-3.872-.45-5.17-2.398-13.083 1.37-1.553 1.327-2.51 2.633-4.106.707-1.425 1.798-4.212 2.27-5.7Zm-5.844 7.148c-.022-.107-.257-.66-.343-.957-.021-.043 1.756-1.192 1.756-1.192s.021.085.043.213c-.022.021-1.2 1.787-1.456 1.936ZM13.317 41.099c-.064 0-.278-.021-.278-.276v-.256c0-.404-.022-.83-.236-1.212a1.766 1.766 0 0 0-.171-.256c.021-.02.043-.02.064-.042h.043c.45-.383.663-.894.663-1.51a2.76 2.76 0 0 0-.3-1.234V36.27c-.278-.469-.684-.767-1.22-.937.728-.425 1.114-1.149 1.114-2.191v-3.319h.877l-.02-2.17h-2.057c1.2-.659 1.885-1.893 1.885-3.53 0-1.787-.77-2.894-1.841-3.49h.792v-2.02H11.09v-3.617c.343.022.578.362.6.915l.021.66h2.12v-3.766H5.203v3.766h2.12l.02-.681c.022-.532.258-.894.6-.894v3.617H6.402v2.02h.663c-1.049.596-1.841 1.703-1.841 3.49 0 1.637.685 2.871 1.884 3.53H5.245v2.17h.878v3.532c0 .66.3 1.361 1.07 1.83H5.225v2.148h.835c0 .021.15 0 .128.149v3.425c0 .17-.128.127-.128.17h-.835v2.127h5.245v-.617c.407.447.985.68 1.756.68h1.798V41.12l-.706-.021ZM9.313 29.825h1.263s.107 0 .107.106v3.276c0 .234-.214.425-.727.425-.514 0-.793-.191-.793-.425V29.93c.022-.085.15-.107.15-.107Zm1.028-5.702c0 1.298-.278 1.957-.856 1.957-.279 0-.857 0-.857-1.957s.6-1.957.857-1.957c.364 0 .856 0 .856 1.957ZM9.335 41.078c-.15 0-.15-.128-.15-.128v-.83h.556c.172 0 .257.022.257.213v.744h-.663Zm-.15-3v-.893h.856c.236 0 .428.191.428.425 0 .277-.214.468-.406.468h-.878Z" fill="#fff"/><path d="M13.124 13.36H5.781v2.637h1.006v-.127c.043-1 .62-1.447 1.199-1.447.364 0 .556.085.556.234v4.063c0 .213-.15.468-.342.468H7v.894h5.075v-.894h-1.199c-.214 0-.343-.234-.343-.468v-4.084c0-.15.172-.234.557-.234.557 0 1.156.447 1.199 1.446v.128h1.006v-2.617h-.171ZM13.274 28.23h-3.019v1.041h.557c.193 0 .321.022.385.107.065.064.065.17.065.34v3.702c-.022.17-.193.808-1.285.808-.856 0-1.349-.32-1.349-.872v-3.617c0-.425.193-.446.386-.446h.685V28.25H5.823v1.043h.429c.192 0 .32.021.385.106.064.064.064.192.064.34v3.681c0 .893.814 1.872 3.083 1.872 2.313 0 2.612-1.107 2.612-2.085V29.76c0-.426.193-.447.386-.447h.492v-1.085ZM9.463 20.613c-1.755 0-3.64.872-3.64 3.51 0 2.234 1.37 3.51 3.64 3.51s3.64-1.276 3.64-3.51c0-2.616-1.884-3.51-3.64-3.51Zm.043 6.042c-.621 0-1.413-.213-1.413-2.532 0-1.744.47-2.531 1.413-2.531 1.006 0 1.413.702 1.413 2.531 0 1.702-.492 2.532-1.413 2.532ZM13.338 41.63c-.257 0-.835-.02-.835-.808v-.276c0-.32-.021-.66-.171-.957-.15-.32-.514-.49-.707-.575.257-.085.536-.234.771-.404.3-.255.471-.617.471-1.085 0-.34-.085-.68-.235-.978-.321-.532-.878-.787-1.756-.787H5.823v1.02h.664c.279 0 .321.277.321.277v4.212c0 .17-.15.34-.3.34h-.663v1.022h4.175v-1.022H8.97c-.15 0-.32-.19-.32-.361v-1.68H9.89c.129 0 .685.063.664.701v.447c0 .383-.043.702.128 1.127.279.575.793.851 1.563.851h1.242v-1.063h-.15Zm-4.71-5.02h1.456c.471 0 .814.213.92.575.065.234.065.574-.042.85-.15.384-.45.575-.878.575H8.628v-2Z" fill="#D9000A"/></g><defs><clipPath id="a"><path fill="#fff" d="M0 0h35.265v48H0z"/></clipPath></defs></svg>
