<?xml version="1.0" encoding="UTF-8"?>
<svg id="Layer_1" xmlns="http://www.w3.org/2000/svg" version="1.1" viewBox="0 0 44 44">
  <!-- Generator: Adobe Illustrator 30.4.0, SVG Export Plug-In . SVG Version: 2.1.4 Build 226)  -->
  <defs>
    <style>
      .st0 {
        fill: #063;
      }

      .st1 {
        fill: #54008b;
      }

      .st2 {
        fill: #fff;
      }
    </style>
  </defs>
  <path class="st1" d="M22,43.72C10,43.72.28,34,.28,22S10,.28,22,.28s21.72,9.73,21.72,21.72-9.73,21.72-21.72,21.72Z"/>
  <path class="st2" d="M22,44C9.87,44,0,34.13,0,22S9.87,0,22,0s22,9.87,22,22-9.87,22-22,22ZM22,.56C10.18.56.56,10.18.56,22s9.62,21.44,21.44,21.44,21.44-9.62,21.44-21.44S33.82.56,22,.56Z"/>
  <path class="st0" d="M22,36.1c-7.77,0-14.1-6.32-14.1-14.09s6.32-14.1,14.1-14.1,14.1,6.32,14.1,14.1-6.32,14.09-14.1,14.09Z"/>
  <path class="st2" d="M22,8.18c7.62,0,13.82,6.2,13.82,13.82s-6.2,13.81-13.82,13.81-13.81-6.2-13.81-13.81,6.2-13.82,13.81-13.82ZM22,7.62c-7.94,0-14.38,6.44-14.38,14.38s6.44,14.37,14.38,14.37,14.38-6.44,14.38-14.37-6.44-14.38-14.38-14.38Z"/>
  <path class="st2" d="M9.45,32.61l.48.55-.93,1.85,1.79-1,.41.38-.78,1.88,1.71-1.12.58.41-2.72,1.62-.44-.36.76-1.84-1.75.94-.41-.4,1.32-2.91Z"/>
  <path class="st2" d="M13.27,35.92l-1.5,2.52.55.33,1.5-2.52-.55-.33Z"/>
  <path class="st2" d="M14.62,36.68l.64.3.27,1.43,1.1-.89.65.22-1,2.75-.61-.19.65-1.8-1.22.86h-.02s-.3-1.45-.3-1.45l-.75,1.74-.58-.26,1.15-2.7Z"/>
  <path class="st2" d="M18.13,37.98c.52.11.97.19,1.26.25.33.05.58.18.72.37.11.15.16.32.13.52h0c-.05.34-.24.52-.47.58.32.18.5.4.44.79h0c-.08.54-.55.75-1.2.65-.47-.08-.94-.17-1.44-.29l.57-2.87h0ZM19.09,40.58c.28.04.47-.03.5-.25h0c.03-.2-.11-.35-.42-.4-.24-.04-.53-.09-.75-.14-.02.09-.11.56-.12.63.19.04.43.09.8.16ZM19.09,39.38c.27.05.47-.02.51-.24h0c.03-.2-.09-.33-.37-.38-.28-.05-.51-.09-.59-.11-.02.08-.11.55-.12.61.18.05.3.07.57.11h0Z"/>
  <path class="st2" d="M21.25,38.42h.65s-.03,2.26-.04,2.36c.35,0,.97-.02,1.43-.05,0,.18.04.59.04.59-.7.05-1.51.06-2.13.04l.05-2.93Z"/>
  <path class="st2" d="M23.82,38.33c.7-.09,1.33-.2,2.09-.37,0,0,.1.47.12.56-.33.08-1.07.24-1.49.29l.09.59c.41-.06.87-.15,1.34-.26l.12.56c-.37.09-.94.2-1.38.27l.09.61c.55-.09,1.04-.19,1.62-.32l.12.56c-.76.18-1.5.3-2.29.41l-.44-2.9h0Z"/>
  <path class="st2" d="M26.82,37.72l1.04-.37c.86-.34,1.68.02,1.98.8h0c.3.78-.06,1.61-.92,1.94-.49.19-.8.29-1.12.39l-.98-2.75h0ZM28.71,39.54c.47-.2.7-.65.51-1.14h0c-.19-.49-.65-.7-1.15-.52,0,0-.29.12-.43.16.04.1.6,1.67.6,1.67,0,0,.25-.09.48-.19h0Z"/>
  <path class="st2" d="M30.47,37.84h0c-.46-.71-.28-1.64.48-2.13.76-.49,1.67-.28,2.13.42h0c.46.71.28,1.64-.48,2.13-.76.49-1.67.28-2.13-.42ZM32.53,36.51h0c-.28-.43-.82-.58-1.25-.3-.44.28-.52.82-.24,1.24h0c.28.43.82.58,1.25.3.44-.28.52-.82.24-1.24Z"/>
  <path class="st2" d="M32.69,34.47l.44-.4,2.23.32-1.31-1.24.42-.47,2.13,2.02-.36.41-2.34-.29,1.29,1.35-.47.43-2.02-2.13Z"/>
  <path class="st2" d="M3.4,19.53c-.04.25-.08.56-.1.87l-.59-.06c.07-.82.19-1.65.35-2.43l.59.11c-.06.27-.14.68-.16.87.11.02,2.31.33,2.31.33l-.09.64s-2.12-.3-2.31-.33Z"/>
  <path class="st2" d="M4.79,13.12c.26-.5.77-1.35,1.15-1.95l.49.29c-.3.46-.63.97-.83,1.37l.52.29c.19-.34.44-.75.73-1.2l.49.29c-.25.39-.52.82-.72,1.19l.54.3c.16-.3.55-.94.82-1.33l.49.29c-.35.49-.84,1.32-1.12,1.88l-2.56-1.42h0Z"/>
  <path class="st2" d="M8.47,10.25h0c-.59-.59-.64-1.52,0-2.16.39-.39.75-.5,1.14-.5l.05.63c-.3.02-.56.09-.76.3-.35.35-.31.89.05,1.25h0c.36.36.9.41,1.25.05.24-.24.29-.48.3-.79h.58c.02.44-.08.82-.47,1.22-.61.61-1.53.6-2.13,0Z"/>
  <path class="st2" d="M14.53,4.14l.55-.22,2.31,2.31-.66.21-.5-.51-1.15.49v.68l-.61.29.05-3.25h0ZM15.81,5.48l-.72-.74v1.03l.72-.29Z"/>
  <path class="st2" d="M17.42,3.19l.68-.16,1.05,1.1.65-1.37.7-.06.36,2.91-.64.05-.24-1.9-.67,1.38h-.02s-1.06-1.09-1.06-1.09l.37,1.86-.62.15-.57-2.88Z"/>
  <path class="st2" d="M21.8,2.64h.63l.59.02c.76.03,1.1.49,1.08,1.06h0c-.03.69-.57.99-1.23.98l-.48-.02-.03.88h-.65l.09-2.93h0ZM22.91,4.14c.32,0,.52-.16.53-.41h0c.01-.3-.17-.48-.49-.49h-.52s-.04.89-.04.89l.51.02h0Z"/>
  <path class="st2" d="M39.88,14.56l.23.59.2.55c.25.72-.04,1.2-.58,1.4h0c-.64.23-1.13-.16-1.36-.78l-.17-.45-.83.3-.24-.6,2.75-1.02h0ZM38.91,16.15c.11.3.34.42.58.34h0c.27-.1.37-.34.26-.64l-.18-.48-.85.3.18.48Z"/>
  <path class="st2" d="M25.23,2.91l-.54,2.88.63.12.54-2.88-.63-.12Z"/>
  <path class="st2" d="M26.46,4.59h0c.28-.79,1.13-1.22,1.98-.92.85.3,1.24,1.16.96,1.94h0c-.28.79-1.13,1.22-1.98.92-.85-.3-1.24-1.16-.96-1.94ZM28.76,5.41h0c.17-.48-.04-1-.52-1.18-.49-.17-.97.09-1.14.57h0c-.17.48.04,1,.52,1.18.49.17.97-.09,1.14-.56Z"/>
  <path class="st2" d="M30.91,4.81l.52.28.26,2.27.98-1.52.53.36-1.6,2.46-.46-.31-.21-2.32-.93,1.62-.56-.3,1.47-2.54Z"/>
  <path class="st2" d="M32.57,8.88l.59-.1c.06.34.18.62.43.84.2.17.39.2.5.07h0c.11-.13.09-.26-.2-.67-.35-.5-.53-.88-.15-1.32h0c.35-.41.9-.4,1.36,0,.33.28.51.62.58.99l-.57.15c-.08-.31-.2-.56-.39-.72-.19-.16-.36-.16-.45-.05h0c-.12.15-.07.28.23.71.35.51.47.89.13,1.28h0c-.38.45-.93.41-1.41,0-.34-.29-.57-.7-.64-1.17"/>
  <path class="st2" d="M36.83,9.55l.41.5-.92.71.71.97.95-.66.36.54-2.41,1.67-.36-.54.97-.67-.7-.95-.93.72-.41-.5,2.32-1.8Z"/>
  <path class="st2" d="M10.28,6.58l.52-.38.67.95,1.06-.7-.61-.98.56-.33,1.55,2.49-.56.33-.62-1-1.03.68.67.96-.52.38-1.68-2.4Z"/>
  <path class="st2" d="M3.34,16.82l.18-.62,1.11.35.4-1.14-1.08-.41.25-.6,2.74,1.04-.25.6-1.1-.42-.38,1.11,1.12.36-.18.62-2.79-.89Z"/>
  <path class="st2" d="M39.04,12.78l-2.61,1.33.29.58,2.61-1.33-.29-.58Z"/>
  <path class="st2" d="M38.47,18.16l.51.31c-.18.29-.28.59-.23.92.04.26.16.4.34.38h0c.16-.02.23-.14.29-.64.06-.61.17-1.01.75-1.09h0c.53-.08.94.29,1.02.89.06.42-.02.8-.21,1.13l-.53-.26c.14-.28.21-.55.18-.8-.04-.25-.17-.36-.31-.34h0c-.19.03-.23.16-.29.68-.07.61-.23.97-.74,1.05h0c-.58.08-.97-.31-1.06-.93-.07-.44.02-.91.29-1.3"/>
  <path class="st2" d="M23.11,30.5c-.28.29-.67.47-1.1.47s-.82-.18-1.1-.47c-.16.22-.25.49-.25.79s.1.56.25.78c.28-.29.67-.47,1.1-.47s.82.18,1.1.47c.16-.22.25-.49.25-.78s-.1-.56-.25-.79h0Z"/>
  <path class="st2" d="M22.01,30.59c.33,0,.63-.14.84-.36-.23-.18-.52-.3-.84-.3s-.61.11-.84.3c.21.22.51.36.84.36Z"/>
  <path class="st2" d="M22.01,31.98c-.33,0-.63.14-.84.36.23.19.52.3.84.3s.61-.11.84-.3c-.21-.22-.51-.36-.84-.36Z"/>
  <path class="st2" d="M15.77,28.56h2c.26-.26.51-.52.76-.77h-2.01c-.26.26-.51.52-.75.77Z"/>
  <path class="st2" d="M16.93,27.38h2c.26-.27.51-.53.74-.77h-1.95c-.26.25-.52.51-.79.77Z"/>
  <path class="st2" d="M15.32,29.04c-.2.22-.32.38.13.83.45.45.61.34.83.13.08-.07.16-.15.24-.22.28-.26.56-.53.85-.82h-1.97s-.05.06-.07.08h0Z"/>
  <path class="st2" d="M20.1,26.16l.03-.04c.07-.07.07-.08.14-.15.07-.08.11-.13.11-.18l-.84-.84c-.05,0-.1.04-.18.11-.07.07-.09.08-.16.15l-.04.03c-.31.29-.66.62-1.02.97h1.92s.03-.04.05-.05h0Z"/>
  <path class="st2" d="M27.23,29.55v-2c-.26-.26-.52-.51-.78-.76v2.01c.26.26.52.51.78.75Z"/>
  <path class="st2" d="M26.05,28.39v-2c-.27-.26-.53-.51-.77-.74v1.95c.25.26.51.52.77.79Z"/>
  <path class="st2" d="M22.28,24.37l1.08,1.11.79-.79-1.06-1.04c-.23.16-.46.37-.71.62l-.1.1h0Z"/>
  <path class="st2" d="M27.71,30c.22.2.38.32.83-.13.45-.45.34-.61.13-.83-.07-.08-.15-.16-.22-.24-.26-.28-.54-.56-.82-.85v1.97s.06.05.08.07h0Z"/>
  <path class="st2" d="M24.82,25.22l-.04-.03c-.07-.07-.08-.07-.15-.14-.08-.07-.13-.11-.18-.11l-.84.84c0,.05.04.1.11.18.07.07.08.09.15.16l.03.04c.29.31.62.66.97,1.02v-1.92s-.04-.03-.05-.05Z"/>
  <path class="st2" d="M20.46,19.11c0-.06,0-.12,0-.18h-.67v-.84h.61c-.01-.06-.02-.12-.04-.18h-.58v-.84h.29c-.03-.06-.05-.12-.08-.18h-.21v-.38c-.06-.09-.11-.18-.18-.27v.65h-.84v-.88h.66c-.05-.06-.1-.12-.15-.18h-.52v-.51c-.06-.05-.12-.1-.18-.15v.66h-.84v-.89h.52c-.09-.06-.19-.12-.28-.18h-.23v-.13c-.06-.03-.12-.06-.18-.08v.21h-.84v-.5c-.06-.01-.12-.03-.18-.04v.54h-.84v-.6c-.06,0-.12,0-.18,0v.6h-.84v-.41c-.06.02-.12.04-.18.07v.34h-.58c-.07.06-.14.11-.2.18h.79v.89h-.87v-.83c-.07.07-.12.13-.18.2v.62h-.39c-.03.06-.05.12-.07.18h.46v.88h-.65c0,.06,0,.12,0,.18h.66v.84h-.6c.01.06.03.12.04.18h.56v.84h-.27c.03.06.06.12.08.18h.18v.33c.06.09.11.18.18.27v-.6h.87v.84h-.68c.05.06.1.12.15.18h.53v.53c.06.05.12.1.18.14v-.68h.84v.84h-.62c.09.06.18.12.27.18h.35v.2c.06.03.12.06.18.08v-.28h.84v.57c.06.01.12.03.18.04v-.6h.84v.66c.06,0,.12,0,.18,0v-.66h.84v.47c.06-.02.12-.04.18-.07v-.4h.64c.07-.06.13-.11.2-.17h0s-.84,0-.84,0v-.84h.84v.84h0c.06-.06.11-.13.17-.19v-.64h.41c.02-.06.05-.12.07-.18h-.47v-.84h.67ZM19.61,18.93h-.84v-.84h.84v.84ZM18.59,19.95h-.84v-.84h.84v.84ZM14.7,18.09h.84v.84h-.84v-.84ZM14.7,17.07h.84v.84h-.84v-.84ZM14.7,16.01h.84v.88h-.84v-.88ZM18.59,17.91h-.84v-.84h.84v.84ZM17.58,18.93h-.84v-.84h.84v.84ZM15.72,18.09h.84v.84h-.84v-.84ZM15.72,17.07h.84v.84h-.84v-.84ZM16.74,17.91v-.84h.84v.84h-.84ZM17.58,16.89h-.84v-.88h.84v.88ZM16.56,16.89h-.84v-.88h.84v.88ZM15.72,19.11h.84v.84h-.84v-.84ZM16.74,19.11h.84v.84h-.84v-.84ZM17.75,18.93v-.84h.84v.84h-.84ZM19.61,17.07v.84h-.84v-.84h.84ZM18.59,16.01v.88h-.84v-.88h.84ZM17.58,14.94v.89h-.84v-.89h.84ZM16.56,14.94v.89h-.84v-.89h.84ZM14.7,14.94h.84v.89h-.84v-.89ZM13.66,16.01h.87v.88h-.87v-.88ZM13.66,17.07h.87v.84h-.87v-.84ZM13.66,18.93v-.84h.87v.84h-.87ZM14.7,19.95v-.84h.84v.84h-.84ZM15.72,20.96v-.84h.84v.84h-.84ZM16.74,20.96v-.84h.84v.84h-.84ZM18.59,20.96h-.84v-.84h.84v.84ZM19.61,19.95h-.84v-.84h.84v.84Z"/>
  <path class="st2" d="M21.27,20.34c0-.26,0-.56.02-.88.12-1.57-.2-3.07-1.97-4.67-2.45-2.21-4.87-1.7-6.21-.35-1.34,1.34-1.86,3.76.35,6.21,1.6,1.77,3.09,2.1,4.67,1.97.32-.02.61-.03.88-.02.75.06,1.31.2,1.86.54l.22-.22c.29-.29.5-.54.67-.8-.31-.53-.44-1.07-.49-1.79h0ZM20.63,19.16c-.04.52-.21,1.3-.86,1.94-.65.64-1.42.82-1.94.86-1.39.12-2.58-.28-3.72-1.47-1.97-2.06-2.05-4.2-.6-5.65,1.45-1.45,3.59-1.38,5.65.6,1.19,1.14,1.58,2.33,1.47,3.72Z"/>
  <path class="st2" d="M30.51,20.67c2.21-2.45,1.7-4.87.35-6.21-1.34-1.34-3.76-1.86-6.21.35-1.77,1.6-2.1,3.1-1.97,4.67.02.32.03.61.02.88-.09,1.19-.39,1.89-1.36,2.86l-1.5,1.47.79.79,1.47-1.5c.97-.97,1.67-1.27,2.86-1.36.26,0,.56,0,.88.02,1.57.12,3.07-.2,4.67-1.97h0ZM26.14,21.98c-.52-.05-1.29-.22-1.94-.86-.65-.64-.82-1.42-.86-1.94-.12-1.39.28-2.58,1.47-3.72,2.06-1.97,4.19-2.04,5.65-.6,1.45,1.45,1.38,3.59-.6,5.65-1.14,1.19-2.33,1.58-3.72,1.47Z"/>
  <path class="st2" d="M30.49,17.09h.66c0-.06,0-.12,0-.18h-.65v-.88h.46c-.02-.06-.04-.12-.07-.18h-.39v-.62c-.06-.07-.11-.14-.18-.2v.83h-.87v-.89h.79c-.07-.06-.13-.12-.2-.18h-.58v-.34c-.06-.02-.12-.05-.18-.07v.41h-.84v-.6c-.06,0-.12,0-.18,0v.6h-.84v-.54c-.06.01-.12.02-.18.04v.5h-.84v-.21c-.06.03-.12.05-.18.08v.13h-.23c-.1.06-.19.11-.28.18h.52v.9h-.84v-.66c-.06.05-.12.09-.18.14v.52h-.52c-.05.06-.1.12-.15.18h.66v.88h-.84v-.65c-.06.09-.12.18-.18.27v.38h-.21c-.03.06-.06.12-.08.18h.29v.84h-.58c-.01.06-.03.12-.04.18h.61v.84h-.67c0,.06,0,.12,0,.18h.67v.84h-.47c.02.06.04.12.07.18h.41v.64c.06.07.11.13.17.19h0v-.84h.84v.84h-.84c.06.07.13.12.2.18h.64v.4c.06.02.12.05.18.07v-.47h.84v.66c.06,0,.12,0,.18,0v-.66h.84v.6c.06-.01.12-.02.18-.04v-.57h.84v.28c.06-.03.12-.05.18-.08v-.2h.35c.09-.06.18-.11.27-.18h-.62v-.84h.84v.68c.06-.05.12-.09.18-.14v-.53h.53c.05-.06.1-.12.15-.18h-.68v-.84h.87v.6c.06-.09.12-.18.18-.27v-.33h.18c.03-.06.06-.12.08-.18h-.27v-.84h.56c.02-.06.03-.12.04-.18h-.6v-.84h0ZM30.32,16.03v.88h-.87v-.88h.87ZM29.27,17.93h-.84v-.84h.84v.84ZM29.27,18.95h-.84v-.84h.84v.84ZM28.26,19.97h-.84v-.84h.84v.84ZM25.38,19.12h.84v.84h-.84v-.84ZM25.38,18.11h.84v.84h-.84v-.84ZM25.38,17.09h.84v.84h-.84v-.84ZM26.4,16.03h.84v.88h-.84v-.88ZM28.26,16.91h-.84v-.88h.84v.88ZM28.26,17.93h-.84v-.84h.84v.84ZM27.24,17.09v.84h-.84v-.84h.84ZM27.24,18.95h-.84v-.84h.84v.84ZM26.4,19.12h.84v.84h-.84v-.84ZM27.41,18.95v-.84h.84v.84h-.84ZM28.43,16.91v-.88h.84v.88h-.84ZM29.27,14.96v.89h-.84v-.89h.84ZM28.26,14.96v.89h-.84v-.9h.84ZM26.4,14.96h.84v.9h-.84v-.9ZM25.38,16.03h.84v.88h-.84v-.88ZM24.36,17.09h.84v.84h-.84v-.84ZM24.36,18.11h.84v.84h-.84v-.84ZM24.36,19.97v-.84h.84v.84h-.84ZM25.38,20.98v-.84h.84v.84h-.84ZM26.4,20.98v-.84h.84v.84h-.84ZM28.26,20.98h-.84v-.84h.84v.84ZM29.27,19.97h-.84v-.84h.84v.84ZM30.32,18.95h-.87v-.84h.87v.84ZM29.45,17.93v-.84h.87v.84h-.87Z"/>
</svg>