<svg xmlns="http://www.w3.org/2000/svg" viewBox="0 0 120 120" role="img" aria-label="Scuderia Ferrari badge">
  <defs>
    <linearGradient id="ferrariShield" x1="0" x2="1" y1="0" y2="1">
      <stop offset="0" stop-color="#fff176"/>
      <stop offset="0.45" stop-color="#ffd532"/>
      <stop offset="1" stop-color="#f4a900"/>
    </linearGradient>
  </defs>
  <path d="M18 10h84v51c0 27.5-16.8 44.7-42 52C34.8 105.7 18 88.5 18 61z" fill="url(#ferrariShield)" stroke="#15110b" stroke-width="5.5"/>
  <path d="M22 14h76v13H22z" fill="#15110b"/>
  <path d="M25 17h20v7H25z" fill="#008c45"/>
  <path d="M45 17h30v7H45z" fill="#fff"/>
  <path d="M75 17h20v7H75z" fill="#cd212a"/>
  <path d="M65.5 31.5c-7.9 1.9-13.4 8.8-13.4 17 0 4.1 1.4 8.1 4.1 11.3-8.4 3.2-14.7 10.7-18.9 22.4l9.5 2.6c3.3-8.3 7.9-13.4 14.2-15.4l2.7 20.6h10.6l-3.5-25.6c7.2-3.5 12-9.6 13.6-18.7l-9-2.2c-.9 5-3.6 9.1-8.5 12.1-4-3.6-5.2-8.7-3.2-14.2 1.3-3.5 4.3-6.1 8.5-7.3z" fill="#15110b"/>
  <path d="M70.6 26.4 90 32.1 75.2 39z" fill="#15110b"/>
  <path d="M49.8 41.7 36.6 33l15.6 1.4z" fill="#15110b"/>
  <circle cx="73.5" cy="33.7" r="2" fill="#ffd532"/>
  <path d="M45.3 90.6c9.6-2.7 19.5-2.7 29.4 0" fill="none" stroke="#15110b" stroke-width="3.2" stroke-linecap="round"/>
  <text x="60" y="106" text-anchor="middle" font-family="Arial Black,Arial,sans-serif" font-size="10.5" font-weight="900" letter-spacing="1.5" fill="#15110b">FERRARI</text>
</svg>
